HIERARCHY
ROOT Hips
{
	OFFSET 0.000000 0.000000 0.000000 
	CHANNELS 6 Xposition Yposition Zposition Yrotation Xrotation Zrotation
	JOINT Spine
	{
		OFFSET 0.000000 0.072080 0.012321 
		CHANNELS 3 Xrotation Yrotation Zrotation
		JOINT Spine1
		{
			OFFSET 0.000000 0.126984 -0.001294 
			CHANNELS 3 Xrotation Yrotation Zrotation
			JOINT Spine2
			{
				OFFSET 0.000000 0.106559 -0.010096 
				CHANNELS 3 Xrotation Yrotation Zrotation
				JOINT Neck
				{
					OFFSET 0.000000 0.108417 -0.034017 
					CHANNELS 3 Xrotation Yrotation Zrotation
					JOINT Neck1
					{
						OFFSET 0.000000 0.033906 0.007241 
						CHANNELS 3 Xrotation Yrotation Zrotation
						JOINT Head
						{
							OFFSET 0.000000 0.031458 0.006707 
							CHANNELS 3 Xrotation Yrotation Zrotation
							End Site
							{
								OFFSET 0.000000 0.179920 0.000962 
							}
						}
					}
				}
				JOINT LeftShoulder
				{
					OFFSET 0.048002 0.079586 -0.029634 
					CHANNELS 3 Zrotation Xrotation Yrotation
					JOINT LeftArm
					{
						OFFSET 0.096243 -0.008695 -0.014012 
						CHANNELS 3 Zrotation Xrotation Yrotation
						JOINT LeftForeArm
						{
							OFFSET 0.216305 0.000000 0.000000 
							CHANNELS 3 Xrotation Zrotation Yrotation
							JOINT LeftHand
							{
								OFFSET 0.217764 0.000000 0.000000 
								CHANNELS 3 Zrotation Yrotation Xrotation
								JOINT LeftHandThumb1
								{
									OFFSET 0.018582 -0.007835 0.020476 
									CHANNELS 3 Zrotation Xrotation Yrotation
									JOINT LeftHandThumb2
									{
										OFFSET 0.026269 -0.007835 0.022186 
										CHANNELS 3 Zrotation Xrotation Yrotation
										JOINT LeftHandThumb3
										{
											OFFSET 0.035170 -0.010504 0.017018 
											CHANNELS 3 Zrotation Xrotation Yrotation
											End Site
											{
												OFFSET 0.020312 -0.007813 0.007813 
											}
										}
									}
								}
								JOINT LeftHandMiddle1
								{
									OFFSET 0.081749 0.004803 0.003358 
									CHANNELS 3 Zrotation Xrotation Yrotation
									JOINT LeftHandMiddle2
									{
										OFFSET 0.045251 0.000000 0.000000 
										CHANNELS 3 Zrotation Xrotation Yrotation
										JOINT LeftHandMiddle3
										{
											OFFSET 0.029009 0.000000 0.000000 
											CHANNELS 3 Zrotation Xrotation Yrotation
											End Site
											{
												OFFSET 0.017969 0.000000 0.000000 
											}
										}
									}
								}
								JOINT LeftHandIndex1
								{
									OFFSET 0.081207 0.004803 0.021137 
									CHANNELS 3 Zrotation Xrotation Yrotation
									JOINT LeftHandIndex2
									{
										OFFSET 0.043354 0.000000 0.000000 
										CHANNELS 3 Zrotation Xrotation Yrotation
										JOINT LeftHandIndex3
										{
											OFFSET 0.026493 0.000000 0.000000 
											CHANNELS 3 Zrotation Xrotation Yrotation
											End Site
											{
												OFFSET 0.019531 0.000000 0.000000 
											}
										}
									}
								}
								JOINT LeftHandRing1
								{
									OFFSET 0.080666 0.002509 -0.014652 
									CHANNELS 3 Zrotation Xrotation Yrotation
									JOINT LeftHandRing2
									{
										OFFSET 0.042541 0.000000 0.000000 
										CHANNELS 3 Zrotation Xrotation Yrotation
										JOINT LeftHandRing3
										{
											OFFSET 0.029009 0.000000 0.000000 
											CHANNELS 3 Zrotation Xrotation Yrotation
											End Site
											{
												OFFSET 0.015625 0.000000 0.000000 
											}
										}
									}
								}
								JOINT LeftHandPinky1
								{
									OFFSET 0.078227 -0.000612 -0.030993 
									CHANNELS 3 Zrotation Xrotation Yrotation
									JOINT LeftHandPinky2
									{
										OFFSET 0.028721 0.000000 0.000000 
										CHANNELS 3 Zrotation Xrotation Yrotation
										JOINT LeftHandPinky3
										{
											OFFSET 0.021963 0.000000 0.000000 
											CHANNELS 3 Zrotation Xrotation Yrotation
											End Site
											{
												OFFSET 0.022656 0.000000 0.000000 
											}
										}
									}
								}
							}
						}
					}
				}
				JOINT RightShoulder
				{
					OFFSET -0.047970 0.079586 -0.029634 
					CHANNELS 3 Zrotation Xrotation Yrotation
					JOINT RightArm
					{
						OFFSET -0.096274 -0.008695 -0.014012 
						CHANNELS 3 Zrotation Xrotation Yrotation
						JOINT RightForeArm
						{
							OFFSET -0.216305 0.000000 0.000000 
							CHANNELS 3 Xrotation Zrotation Yrotation
							JOINT RightHand
							{
								OFFSET -0.217764 0.000000 0.000000 
								CHANNELS 3 Zrotation Yrotation Xrotation
								JOINT RightHandThumb1
								{
									OFFSET -0.019670 -0.007318 0.019638 
									CHANNELS 3 Zrotation Xrotation Yrotation
									JOINT RightHandThumb2
									{
										OFFSET -0.025498 -0.008492 0.023179 
										CHANNELS 3 Zrotation Xrotation Yrotation
										JOINT RightHandThumb3
										{
											OFFSET -0.034504 -0.010705 0.016680 
											CHANNELS 3 Zrotation Xrotation Yrotation
											End Site
											{
												OFFSET -0.020312 -0.007813 0.007813 
											}
										}
									}
								}
								JOINT RightHandIndex1
								{
									OFFSET -0.081770 0.003825 0.021187 
									CHANNELS 3 Zrotation Xrotation Yrotation
									JOINT RightHandIndex2
									{
										OFFSET -0.042006 0.000000 0.000000 
										CHANNELS 3 Zrotation Xrotation Yrotation
										JOINT RightHandIndex3
										{
											OFFSET -0.026449 0.000000 0.000000 
											CHANNELS 3 Zrotation Xrotation Yrotation
											End Site
											{
												OFFSET -0.020312 0.000000 0.000000 
											}
										}
									}
								}
								JOINT RightHandMiddle1
								{
									OFFSET -0.084059 0.003825 0.003342 
									CHANNELS 3 Zrotation Xrotation Yrotation
									JOINT RightHandMiddle2
									{
										OFFSET -0.043881 0.000000 0.000000 
										CHANNELS 3 Zrotation Xrotation Yrotation
										JOINT RightHandMiddle3
										{
											OFFSET -0.029191 0.000000 0.000000 
											CHANNELS 3 Zrotation Xrotation Yrotation
											End Site
											{
												OFFSET -0.017969 0.000000 0.000000 
											}
										}
									}
								}
								JOINT RightHandRing1
								{
									OFFSET -0.081798 0.003030 -0.015127 
									CHANNELS 3 Zrotation Xrotation Yrotation
									JOINT RightHandRing2
									{
										OFFSET -0.042198 0.000000 0.000000 
										CHANNELS 3 Zrotation Xrotation Yrotation
										JOINT RightHandRing3
										{
											OFFSET -0.026497 0.000000 0.000000 
											CHANNELS 3 Zrotation Xrotation Yrotation
											End Site
											{
												OFFSET -0.017188 0.000000 0.000000 
											}
										}
									}
								}
								JOINT RightHandPinky1
								{
									OFFSET -0.077902 -0.000930 -0.030891 
									CHANNELS 3 Zrotation Xrotation Yrotation
									JOINT RightHandPinky2
									{
										OFFSET -0.028538 0.000000 0.000000 
										CHANNELS 3 Zrotation Xrotation Yrotation
										JOINT RightHandPinky3
										{
											OFFSET -0.021734 0.000000 0.000000 
											CHANNELS 3 Zrotation Xrotation Yrotation
											End Site
											{
												OFFSET -0.022656 0.000000 0.000000 
											}
										}
									}
								}
							}
						}
					}
				}
			}
		}
	}
	JOINT LeftUpLeg
	{
		OFFSET 0.075264 -0.025573 0.000000 
		CHANNELS 3 Xrotation Yrotation Zrotation
		JOINT LeftLeg
		{
			OFFSET 0.000000 -0.326016 -0.013516 
			CHANNELS 3 Xrotation Yrotation Zrotation
			JOINT LeftFoot
			{
				OFFSET 0.000098 -0.306172 -0.006623 
				CHANNELS 3 Xrotation Yrotation Zrotation
				JOINT LeftToeBase
				{
					OFFSET -0.001432 -0.095259 0.064705 
					CHANNELS 3 Xrotation Yrotation Zrotation
					End Site
					{
						OFFSET 0.000000 0.000000 0.079438 
					}
				}
			}
		}
	}
	JOINT RightUpLeg
	{
		OFFSET -0.075264 -0.025573 0.000000 
		CHANNELS 3 Xrotation Yrotation Zrotation
		JOINT RightLeg
		{
			OFFSET 0.000000 -0.326016 -0.013516 
			CHANNELS 3 Xrotation Yrotation Zrotation
			JOINT RightFoot
			{
				OFFSET 0.000098 -0.306172 -0.006623 
				CHANNELS 3 Xrotation Yrotation Zrotation
				JOINT RightToeBase
				{
					OFFSET -0.001432 -0.095259 0.064705 
					CHANNELS 3 Xrotation Yrotation Zrotation
					End Site
					{
						OFFSET 0.000025 0.000000 0.079438 
					}
				}
			}
		}
	}
}
MOTION
Frames: 6
Frame Time: 0.033333
0.001711 0.735859 0.002591 1.403400 -0.642800 -4.961500 1.288300 -1.210500 2.563700 0.728800 0.264200 5.944500 0.710800 0.781500 5.851900 1.045300 -0.304200 -2.164000 -0.000000 0.000000 -0.000000 1.583900 0.546300 -8.141000 -4.915900 4.767900 -13.406400 -83.385498 -3.263600 4.199600 0.000000 -0.000000 -14.506200 -14.046700 -0.188000 -21.888800 6.760400 24.673599 10.066700 -6.493600 -8.917200 22.152300 3.096400 -1.542000 9.634500 -15.113100 -0.831100 4.740300 -35.549198 -0.482700 0.575700 -14.296100 -0.017700 0.233700 -6.847200 -0.041300 1.514100 -22.681299 -0.278900 0.696400 -12.145100 -0.017100 -0.231300 -28.761801 -1.612400 6.627700 -44.943298 0.207700 0.278600 -23.978600 0.284800 -0.033200 -38.413898 -3.532700 10.434900 -50.338799 -0.192100 -0.391200 -25.248800 -0.203500 0.751300 5.480200 4.804300 2.880800 67.333900 0.280800 1.649500 -0.000000 -0.000000 17.736000 14.732300 -8.709300 -8.445100 -7.138100 25.570200 -11.632900 7.173500 -8.715800 -20.361000 -2.022500 -1.572800 -8.713400 7.520200 -0.056600 -1.801400 22.659300 -0.371500 -1.159400 15.760200 -0.113700 0.915500 15.710200 -0.895800 -5.195800 35.522598 -0.706300 -1.274000 17.924801 -0.089700 -0.434600 29.302500 -1.811400 -7.340100 44.929001 -0.143100 -1.127000 22.301901 0.096900 1.416100 38.839199 -3.850900 -11.314600 50.330601 -0.626600 -0.533400 26.617701 -0.495500 1.738500 -21.979700 10.104500 16.413200 29.182699 9.552000 2.128700 -6.721600 3.790100 -11.669400 -0.473100 -0.000000 -0.000000 -0.267600 -4.631400 10.778500 10.890400 -4.757700 3.399800 -10.068100 0.998300 -8.446000 -0.587500 0.000000 -0.000000 
0.001752 0.735867 0.002591 1.408000 -0.640100 -4.960100 1.287100 -1.212000 2.563000 0.727100 0.263500 5.942700 0.709100 0.780900 5.850000 1.042300 -0.300400 -2.166500 -0.000000 0.000000 -0.000000 1.564300 0.562000 -8.151900 -4.908800 4.768700 -13.397800 -83.398399 -3.269100 4.183600 -0.000000 0.000000 -14.493300 -14.070700 -0.195900 -21.862301 6.759300 24.671600 10.058300 -6.493600 -8.918200 22.143200 3.095600 -1.543400 9.625500 -15.111800 -0.831000 4.740300 -35.548000 -0.482700 0.575700 -14.294900 -0.017700 0.233700 -6.846000 -0.041200 1.514100 -22.680201 -0.278800 0.696400 -12.143900 -0.017100 -0.231200 -28.752600 -1.612000 6.627900 -44.934101 0.207600 0.278600 -23.969500 0.284700 -0.033200 -38.404900 -3.531100 10.435400 -50.329601 -0.192100 -0.391200 -25.239599 -0.203400 0.751400 5.465600 4.806100 2.881500 67.347702 0.270100 1.649300 -0.000000 -0.000000 17.731600 14.734300 -8.711600 -8.442700 -7.137000 25.568001 -11.624600 7.173700 -8.717000 -20.351999 -2.021600 -1.574100 -8.704400 7.519000 -0.056600 -1.801400 22.658100 -0.371500 -1.159400 15.759000 -0.113600 0.915600 15.709000 -0.895700 -5.195800 35.521400 -0.706200 -1.274000 17.923500 -0.089700 -0.434600 29.293400 -1.810900 -7.340100 44.919800 -0.143000 -1.126800 22.292801 0.096900 1.416300 38.830200 -3.849100 -11.315000 50.321499 -0.626400 -0.533300 26.608601 -0.495300 1.738600 -21.979700 10.100400 16.405399 29.180201 9.551900 2.129700 -6.719900 3.789900 -11.668500 -0.472600 0.000000 -0.000000 -0.266600 -4.635100 10.775100 10.884300 -4.768300 3.398300 -10.066800 0.997800 -8.440700 -0.591700 -0.000000 0.000000 
0.001784 0.735870 0.002591 1.415800 -0.638300 -4.961700 1.285400 -1.214100 2.563300 0.723200 0.262000 5.939600 0.705200 0.779800 5.846900 1.039300 -0.295400 -2.168400 -0.000000 0.000000 -0.000000 1.538400 0.579800 -8.149800 -4.883500 4.769300 -13.398900 -83.431396 -3.273300 4.171700 0.000000 -0.000000 -14.481000 -14.082000 -0.199800 -21.838499 6.756400 24.665899 10.034900 -6.493500 -8.921100 22.118000 3.093400 -1.547500 9.600500 -15.108500 -0.830900 4.740300 -35.544701 -0.482700 0.575800 -14.291500 -0.017700 0.233700 -6.842700 -0.041200 1.514200 -22.676800 -0.278800 0.696400 -12.140600 -0.017100 -0.231200 -28.727400 -1.610800 6.628500 -44.908600 0.207500 0.278600 -23.944099 0.284400 -0.033300 -38.379902 -3.526400 10.436700 -50.304298 -0.192100 -0.391000 -25.214300 -0.203200 0.751500 5.424600 4.811300 2.877900 67.393204 0.261500 1.656200 -0.000000 0.000000 17.721201 14.750500 -8.711200 -8.433200 -7.133800 25.562000 -11.601400 7.174000 -8.720100 -20.326799 -2.019000 -1.577900 -8.679400 7.515700 -0.056500 -1.801300 22.654699 -0.371400 -1.159400 15.755600 -0.113600 0.915600 15.705700 -0.895500 -5.195800 35.518002 -0.706100 -1.274000 17.920200 -0.089600 -0.434500 29.268101 -1.809300 -7.340300 44.894402 -0.142800 -1.126400 22.267401 0.096800 1.416800 38.805302 -3.844100 -11.315900 50.296200 -0.625900 -0.533100 26.583300 -0.494900 1.739000 -21.983500 10.095900 16.402100 29.182800 9.551800 2.131900 -6.719700 3.782900 -11.669500 -0.475800 0.000000 0.000000 -0.264000 -4.637400 10.775800 10.876500 -4.780400 3.396900 -10.064700 0.997500 -8.436400 -0.592500 -0.000000 -0.000000 
0.001813 0.735870 0.002591 1.427100 -0.637000 -4.965400 1.282100 -1.217400 2.562800 0.716600 0.260000 5.936500 0.698500 0.778400 5.843800 1.039000 -0.292100 -2.168400 -0.000000 0.000000 -0.000000 1.515600 0.589900 -8.135500 -4.835600 4.769200 -13.406900 -83.486603 -3.272500 4.166600 0.000000 -0.000000 -14.475800 -14.074500 -0.186500 -21.828899 6.751600 24.656500 9.996100 -6.493500 -8.926000 22.076200 3.089700 -1.554300 9.559100 -15.103000 -0.830600 4.740400 -35.539101 -0.482600 0.575800 -14.286000 -0.017700 0.233700 -6.837200 -0.041000 1.514200 -22.671301 -0.278700 0.696400 -12.135100 -0.017100 -0.231200 -28.685400 -1.608800 6.629500 -44.866402 0.207300 0.278600 -23.902100 0.284000 -0.033300 -38.338501 -3.518700 10.438900 -50.262199 -0.192000 -0.390800 -25.172199 -0.202900 0.751800 5.364700 4.820200 2.872500 67.460701 0.252400 1.664900 -0.000000 0.000000 17.710699 14.770100 -8.706300 -8.424600 -7.128600 25.551901 -11.563000 7.174500 -8.725300 -20.285000 -2.014800 -1.584100 -8.637900 7.510200 -0.056300 -1.801200 22.649200 -0.371300 -1.159300 15.750100 -0.113600 0.915700 15.700200 -0.895200 -5.195700 35.512501 -0.706000 -1.274000 17.914700 -0.089600 -0.434400 29.226200 -1.806900 -7.340500 44.852200 -0.142300 -1.125800 22.225401 0.096700 1.417700 38.764000 -3.835800 -11.317400 50.254101 -0.625200 -0.532800 26.541201 -0.494300 1.739500 -21.988501 10.088100 16.398800 29.187500 9.551800 2.136900 -6.722100 3.776900 -11.670800 -0.481400 -0.000000 -0.000000 -0.262300 -4.638200 10.779700 10.871500 -4.795100 3.394200 -10.064000 0.997200 -8.431200 -0.588500 -0.000000 -0.000000 
0.001848 0.735868 0.002592 1.441200 -0.635000 -4.969700 1.276100 -1.221300 2.560500 0.707100 0.257600 5.934600 0.688800 0.776900 5.841800 1.041900 -0.292300 -2.167200 -0.000000 0.000000 -0.000000 1.505400 0.584900 -8.115500 -4.762900 4.767900 -13.417000 -83.565498 -3.266200 4.169100 -0.000000 -0.000000 -14.480800 -14.054100 -0.157400 -21.839300 6.744900 24.643600 9.942500 -6.493500 -8.932700 22.018700 3.084500 -1.563700 9.501900 -15.095400 -0.830200 4.740500 -35.531502 -0.482500 0.575900 -14.278400 -0.017700 0.233800 -6.829600 -0.040800 1.514200 -22.663700 -0.278600 0.696500 -12.127500 -0.017100 -0.231200 -28.627600 -1.606100 6.630900 -44.808102 0.207000 0.278600 -23.844101 0.283400 -0.033400 -38.281399 -3.508100 10.441900 -50.204201 -0.191900 -0.390500 -25.114201 -0.202500 0.752100 5.291000 4.832800 2.867400 67.540001 0.244100 1.670700 -0.000000 -0.000000 17.704500 14.779800 -8.698600 -8.422800 -7.121400 25.538099 -11.510100 7.175200 -8.732600 -20.227301 -2.008900 -1.592700 -8.580700 7.502600 -0.056100 -1.801100 22.641600 -0.371100 -1.159200 15.742500 -0.113600 0.915900 15.692600 -0.894700 -5.195700 35.504902 -0.705800 -1.273900 17.907101 -0.089500 -0.434300 29.168501 -1.803400 -7.340900 44.793900 -0.141800 -1.124900 22.167400 0.096600 1.418800 38.707001 -3.824300 -11.319600 50.196201 -0.624200 -0.532300 26.483299 -0.493300 1.740300 -21.992901 10.075700 16.391001 29.191601 9.551900 2.145000 -6.727200 3.777900 -11.670400 -0.486200 -0.000000 -0.000000 -0.262200 -4.638900 10.784100 10.868400 -4.812300 3.390500 -10.064400 0.997000 -8.424300 -0.583300 0.000000 -0.000000 
0.001888 0.735866 0.002591 1.454800 -0.633100 -4.974100 1.268000 -1.224300 2.556500 0.695200 0.255200 5.933900 0.676800 0.775600 5.841100 1.046000 -0.295000 -2.166600 -0.000000 0.000000 -0.000000 1.511000 0.568700 -8.097800 -4.666200 4.765500 -13.424300 -83.668999 -3.260000 4.178500 -0.000000 0.000100 -14.493200 -14.033000 -0.133200 -21.865499 6.736500 24.627399 9.875200 -6.493400 -8.941100 21.946199 3.078000 -1.575500 9.430100 -15.085900 -0.829700 4.740700 -35.521900 -0.482400 0.576000 -14.268900 -0.017700 0.233800 -6.820000 -0.040600 1.514200 -22.654100 -0.278500 0.696600 -12.117900 -0.017100 -0.231200 -28.554899 -1.602700 6.632600 -44.734901 0.206600 0.278500 -23.771200 0.282700 -0.033400 -38.209499 -3.494800 10.445800 -50.131302 -0.191800 -0.390000 -25.041300 -0.202100 0.752500 5.204200 4.848800 2.864000 67.627197 0.240700 1.671700 -0.000000 -0.000000 17.702700 14.772900 -8.692000 -8.422900 -7.112400 25.520700 -11.443500 7.176200 -8.741600 -20.154800 -2.001400 -1.603500 -8.508800 7.493000 -0.055800 -1.800900 22.632000 -0.370900 -1.159100 15.732900 -0.113500 0.916000 15.683000 -0.894100 -5.195700 35.495300 -0.705600 -1.273900 17.897499 -0.089500 -0.434200 29.095900 -1.799100 -7.341300 44.720699 -0.141000 -1.123800 22.094500 0.096400 1.420300 38.635399 -3.809900 -11.322300 50.123299 -0.622900 -0.531800 26.410400 -0.492200 1.741200 -21.997801 10.061500 16.381500 29.197500 9.552000 2.154300 -6.732800 3.783600 -11.667700 -0.488300 -0.000000 -0.000000 -0.264500 -4.639900 10.788000 10.870100 -4.828000 3.386700 -10.066800 0.997000 -8.416900 -0.582600 -0.000000 -0.000000 
